<svg width="194" height="20" viewBox="0 0 194 20" fill="none" xmlns="http://www.w3.org/2000/svg">
<path d="M11.7456 19.633H6.58976V4.64832H0V0.366971H18.4269V4.64832H11.7456V19.633Z" fill="white"/>
<path d="M25.8494 19.633H20.6631V0.366971H25.8494V7.79817H33.507V0.366971H38.6934V19.633H33.507V12.0183H25.8494V19.633Z" fill="white"/>
<path d="M41.6076 0.366971H46.794V19.633H41.6076V0.366971Z" fill="white"/>
<path d="M67.1315 19.633H61.8841C61.4875 19.1132 61.2434 17.9205 61.0909 15.9327C60.9383 13.7309 59.9926 13.2416 58.2536 13.2416H54.8062V19.633H49.7113V0.366971H59.4129C64.3857 0.366971 66.8569 2.72171 66.8569 6.48318C66.8569 9.29664 65.1179 11.1315 62.7688 11.4373C64.7518 11.8349 65.9112 12.9664 66.1247 15.1988C66.3993 18.0734 66.4908 18.9297 67.1315 19.633ZM54.8062 9.23547H58.4977C60.6943 9.23547 61.7925 8.68502 61.7925 6.91132C61.7925 5.35168 60.6943 4.52599 58.4977 4.52599H54.8062V9.23547Z" fill="white"/>
<path d="M74.3228 15.5352H76.3669C79.7228 15.5352 81.7058 13.5168 81.7058 9.96942C81.7058 6.48318 79.7228 4.46483 76.3669 4.46483H74.3228V15.5352ZM69.1364 19.633V0.366971H76.733C83.1092 0.366971 87.0447 3.97554 87.0447 10C87.0447 16.0245 83.1092 19.633 76.733 19.633H69.1364Z" fill="white"/>
<path d="M88.2734 12.8135L93.0326 12.6606C93.2157 15.0765 95.0767 15.9021 97.2122 15.9021C99.0122 15.9021 100.172 15.2599 100.172 14.1896C100.172 13.0581 99.0427 12.8746 97.5784 12.5994L94.0699 11.9878C90.9276 11.4067 88.731 9.63303 88.731 6.26911C88.731 2.35474 91.7818 0 96.5716 0C101.88 0 104.748 2.59939 104.839 6.88073L100.08 6.97248C99.9275 4.98471 98.4936 4.06728 96.5106 4.06728C94.8021 4.06728 93.8259 4.74006 93.8259 5.8104C93.8259 6.69725 94.558 7.03364 95.7479 7.24771L99.3783 7.88991C103.405 8.59327 105.236 10.7034 105.236 13.8532C105.236 17.9511 101.697 20 97.2122 20C91.9954 20 88.2734 17.4618 88.2734 12.8135Z" fill="white"/>
<path d="M117.749 19.633H112.594V4.64832H106.004V0.366971H124.431V4.64832H117.749V19.633Z" fill="white"/>
<path d="M135.27 20C130.328 20 126.545 17.6147 126.545 11.9878V0.366971H131.701V11.1315C131.701 14.0673 132.616 15.6269 135.27 15.6269C137.955 15.6269 138.84 14.0673 138.84 11.1315V0.366971H144.026V11.9878C144.026 17.6147 140.213 20 135.27 20Z" fill="white"/>
<path d="M151.993 15.5352H154.037C157.393 15.5352 159.376 13.5168 159.376 9.96942C159.376 6.48318 157.393 4.46483 154.037 4.46483H151.993V15.5352ZM146.807 19.633V0.366971H154.404C160.78 0.366971 164.715 3.97554 164.715 10C164.715 16.0245 160.78 19.633 154.404 19.633H146.807Z" fill="white"/>
<path d="M166.798 0.366971H171.985V19.633H166.798V0.366971Z" fill="white"/>
<path d="M194 10C194 15.9327 189.607 20 184.024 20C178.441 20 174.048 15.9327 174.048 10C174.048 4.06728 178.441 0 184.024 0C189.607 0 194 4.06728 194 10ZM188.661 10C188.661 6.72783 186.861 4.58716 184.024 4.58716C181.187 4.58716 179.387 6.72783 179.387 10C179.387 13.2722 181.187 15.4128 184.024 15.4128C186.861 15.4128 188.661 13.2722 188.661 10Z" fill="white"/>
</svg>
