<svg width="26" height="26" viewBox="0 0 26 26" fill="none" xmlns="http://www.w3.org/2000/svg">
<path d="M7.98216 0.985107C6.03406 0.991102 4.16746 1.76764 2.78994 3.14516C1.41241 4.52268 0.635877 6.38928 0.629883 8.33738L0.629883 18.6328C0.635877 20.5809 1.41241 22.4475 2.78994 23.8251C4.16746 25.2026 6.03406 25.9791 7.98216 25.9851H18.2776C20.2257 25.9791 22.0923 25.2026 23.4698 23.8251C24.8474 22.4475 25.6239 20.5809 25.6299 18.6328V8.33738C25.6239 6.38928 24.8474 4.52268 23.4698 3.14516C22.0923 1.76764 20.2257 0.991102 18.2776 0.985107L7.98216 0.985107ZM7.98216 3.25783H18.2776C19.6248 3.25783 20.9168 3.793 21.8694 4.7456C22.822 5.6982 23.3572 6.9902 23.3572 8.33738V18.6328C23.3572 19.98 22.822 21.272 21.8694 22.2246C20.9168 23.1772 19.6248 23.7124 18.2776 23.7124H7.98216C6.63498 23.7124 5.34297 23.1772 4.39037 22.2246C3.43777 21.272 2.90261 19.98 2.90261 18.6328V8.33738C2.90261 6.9902 3.43777 5.6982 4.39037 4.7456C5.34297 3.793 6.63498 3.25783 7.98216 3.25783ZM19.8458 5.74647C19.6403 5.74423 19.4388 5.80325 19.267 5.916C19.0953 6.02876 18.961 6.19014 18.8813 6.37956C18.8016 6.56897 18.7802 6.77782 18.8197 6.97947C18.8593 7.18112 18.958 7.36641 19.1033 7.51171C19.2486 7.65701 19.4339 7.75573 19.6355 7.79527C19.8372 7.83481 20.046 7.81337 20.2354 7.7337C20.4248 7.65403 20.5862 7.51973 20.699 7.34794C20.8117 7.17616 20.8708 6.97467 20.8685 6.7692C20.8685 6.49795 20.7608 6.23782 20.569 6.04602C20.3772 5.85422 20.117 5.74647 19.8458 5.74647ZM13.1299 6.66693C11.7814 6.66693 10.4631 7.0668 9.3419 7.816C8.22066 8.56519 7.34676 9.63004 6.8307 10.8759C6.31465 12.1218 6.17963 13.4927 6.44271 14.8153C6.70579 16.1379 7.35516 17.3527 8.3087 18.3063C9.26224 19.2598 10.4771 19.9092 11.7997 20.1723C13.1223 20.4354 14.4932 20.3003 15.7391 19.7843C16.9849 19.2682 18.0498 18.3943 18.799 17.2731C19.5482 16.1518 19.9481 14.8336 19.9481 13.4851C19.9481 11.6768 19.2297 9.94258 17.9511 8.66393C16.6724 7.38527 14.9382 6.66693 13.1299 6.66693ZM13.1299 8.93965C14.0289 8.93965 14.9077 9.20624 15.6552 9.7057C16.4027 10.2052 16.9853 10.9151 17.3293 11.7456C17.6734 12.5762 17.7634 13.4901 17.588 14.3719C17.4126 15.2536 16.9797 16.0635 16.344 16.6992C15.7083 17.3349 14.8984 17.7678 14.0167 17.9432C13.1349 18.1186 12.221 18.0286 11.3904 17.6846C10.5598 17.3405 9.84994 16.7579 9.35048 16.0104C8.85101 15.2629 8.58443 14.3841 8.58443 13.4851C8.58443 12.2796 9.06332 11.1234 9.91576 10.271C10.7682 9.41855 11.9244 8.93965 13.1299 8.93965Z" fill="#8A8474"/>
</svg>
