<svg width="129" height="184" viewBox="0 0 129 184" fill="none" xmlns="http://www.w3.org/2000/svg">
<g clip-path="url(#clip0_119_390)">
<path d="M0.246252 159.765L0 68.6115C0 67.6972 0.469521 66.8454 1.24768 66.3653L83.4335 15.6187C84.2346 15.122 85.2393 15.0957 86.0668 15.5463L127.628 38.2063C128.471 38.6668 129 39.5547 129 40.5184V132.694C129 133.638 128.494 134.51 127.677 134.977L42.7198 183.651C41.9187 184.109 40.937 184.115 40.1325 183.665L1.58915 162.054C0.76174 161.59 0.249535 160.715 0.246252 159.765Z" fill="#8A8474"/>
<path d="M41.6297 90.6532V177.1L4.82324 158.574V70.8939L41.6297 90.6532Z" fill="white"/>
<path d="M41.4135 180.612L3.53008 159.373L3.28711 68.97L42.9271 89.877L41.4168 180.612H41.4135ZM6.11737 157.772L40.3333 174.995V91.4294L6.11737 73.058V157.772Z" fill="white"/>
<path d="M122.624 40.844L84.8325 19.3712L5.80859 68.9832L41.6301 90.6533L122.624 40.844Z" fill="white"/>
<path d="M41.6132 92.1595L3.2832 68.97L84.8321 18.618L125.716 40.9097L41.6132 92.1595ZM8.32973 68.993L41.6427 89.1469L120.033 41.6004L84.8616 21.6175L8.32973 68.993Z" fill="white"/>
<path d="M50.6132 162.932C40.2444 162.932 30.3319 160.347 22.7046 155.654C15.9672 151.506 11.7842 146.083 11.7842 141.502C11.7842 138.956 12.871 136.763 14.0234 134.441C14.3977 133.684 14.7852 132.905 15.1398 132.099C16.9752 127.929 35.8053 82.5365 37.3287 78.8661V44.5078C37.3287 39.8146 43.1665 36.1344 50.6165 36.1344C58.0664 36.1344 63.901 39.8113 63.901 44.5078V78.853C65.5065 82.5167 84.5829 125.995 86.3953 129.738C88.1355 133.332 89.8954 138.779 89.8954 142.242C89.8954 151.809 72.7365 162.929 50.6165 162.929L50.6132 162.932ZM50.6132 38.6602C44.7754 38.6602 39.8438 41.3406 39.8438 44.511V79.3726L39.7486 79.6061C38.9179 81.6123 19.3556 128.771 17.4447 133.119C17.0671 133.977 16.6665 134.783 16.2791 135.566C15.2186 137.703 14.3025 139.552 14.3025 141.505C14.3025 148.172 28.0894 160.416 50.6132 160.416C73.1371 160.416 87.3737 149.481 87.3737 142.248C87.3737 139.2 85.6992 134.095 84.1265 130.843C82.2254 126.913 62.3348 81.5564 61.4877 79.6291L61.3826 79.3858V44.5143C61.3826 41.3439 56.451 38.6635 50.6132 38.6635V38.6602Z" fill="#8A8474"/>
<path d="M50.6356 48.8226C55.6822 48.8226 59.7732 46.8923 59.7732 44.511C59.7732 42.1297 55.6822 40.1993 50.6356 40.1993C45.5891 40.1993 41.498 42.1297 41.498 44.511C41.498 46.8923 45.5891 48.8226 50.6356 48.8226Z" fill="white"/>
<path d="M50.6126 53.6441C42.7358 53.6441 36.5664 49.6317 36.5664 44.511C36.5664 39.3903 42.7358 35.3779 50.6126 35.3779C58.4894 35.3779 64.6588 39.3903 64.6588 44.511C64.6588 49.6317 58.4894 53.6441 50.6126 53.6441ZM50.6126 39.4199C44.7124 39.4199 40.6017 42.1036 40.6017 44.511C40.6017 46.9184 44.7124 49.6021 50.6126 49.6021C56.5128 49.6021 60.6236 46.9184 60.6236 44.511C60.6236 42.1036 56.5128 39.4199 50.6126 39.4199Z" fill="white"/>
<path d="M50.6133 54.9037C42.0306 54.9037 35.3096 50.3388 35.3096 44.511C35.3096 38.6832 42.0306 34.1183 50.6133 34.1183C59.196 34.1183 65.9171 38.6832 65.9171 44.511C65.9171 50.3388 59.196 54.9037 50.6133 54.9037ZM50.6133 36.6408C43.5639 36.6408 37.8279 40.173 37.8279 44.511C37.8279 48.8489 43.5639 52.3811 50.6133 52.3811C57.6627 52.3811 63.3987 48.8489 63.3987 44.511C63.3987 40.173 57.6627 36.6408 50.6133 36.6408ZM50.6133 50.865C44.3979 50.865 39.3448 48.0169 39.3448 44.5143C39.3448 41.0117 44.4012 38.1635 50.6133 38.1635C56.8254 38.1635 61.8818 41.0117 61.8818 44.5143C61.8818 48.0169 56.8254 50.865 50.6133 50.865ZM50.6133 40.6828C44.9495 40.6828 41.8599 43.2119 41.8599 44.5143C41.8599 45.8166 44.9495 48.3458 50.6133 48.3458C56.2771 48.3458 59.3635 45.8166 59.3635 44.5143C59.3635 43.2119 56.2738 40.6828 50.6133 40.6828Z" fill="#8A8474"/>
<path d="M50.5206 154.137C36.7174 154.137 25.2847 150.641 21.4005 145.235C19.795 143.002 19.4765 140.538 20.4254 137.7L20.688 136.911C23.1702 131.836 34.8754 107.887 35.7094 106.183C37.6991 103.483 42.854 100.786 49.9887 100.786C50.2153 100.786 50.4484 100.786 50.6783 100.793C56.6802 100.803 62.0452 102.338 64.3764 104.71C65.0692 105.414 65.414 106.134 65.4041 106.844V107.143L78.6032 134.28L78.6689 134.372C81.3744 138.062 82.0245 141.364 80.5995 144.182C77.592 150.132 65.5026 154.131 50.5239 154.131H50.5206V154.137Z" fill="#8A8474"/>
<path d="M49.986 102.049C50.206 102.049 50.426 102.049 50.6492 102.056H50.6788H50.7083C57.1371 102.062 61.7568 103.841 63.4839 105.598C63.7925 105.91 64.157 106.38 64.1504 106.831L64.1406 107.433L64.4032 107.972L77.4283 134.737L77.5268 134.941L77.6614 135.125C80.0977 138.446 80.692 141.226 79.4837 143.62C76.729 149.073 64.8202 152.878 50.5245 152.878C37.3188 152.878 26.0273 149.51 22.4255 144.498C21.076 142.617 20.8133 140.525 21.621 138.101L21.8574 137.394C24.3692 132.254 35.6114 109.255 36.7869 106.851C38.2184 104.999 42.4737 102.052 49.9893 102.052M49.9893 99.5298C41.9877 99.5298 36.649 102.704 34.6297 105.535L19.1027 137.299H19.234C15.1659 149.48 32.8239 155.4 50.5245 155.4C70.3428 155.4 90.2105 147.984 79.6906 133.635L66.6655 106.87C66.7246 102.789 59.5406 99.5495 50.7083 99.5364C50.4654 99.5298 50.2257 99.5265 49.986 99.5265L49.9893 99.5298Z" fill="#8A8474"/>
<path d="M44.1904 92.4259V178.883L125.473 132.313V44.7148L44.1904 92.4259Z" fill="white"/>
<path d="M41.4131 180.613V90.696L125.717 41.1169V132.313L41.4131 180.613ZM44.4338 92.4259V178.659L125.717 132.139V44.7149L44.4338 92.4259Z" fill="#8A8474"/>
<path d="M84.4189 121.042L90.2568 99.4212L95.0932 96.6257L100.714 111.62L96.1635 114.251L95.1391 111.067L89.8266 114.139L88.7793 118.519L84.4189 121.042ZM90.6836 110.113L94.2822 108.031L92.519 102.348L90.6836 110.11V110.113Z" fill="#8A8474"/>
<path d="M102.237 110.738V92.4917L108.338 88.966C109.973 88.0189 111.431 87.5025 112.711 87.4104C113.988 87.3183 115.003 87.736 115.748 88.6635C116.494 89.5909 116.868 91.1202 116.868 93.2547C116.868 95.2609 116.494 97.1486 115.748 98.9213C115.003 100.694 113.982 102.286 112.688 103.7C111.395 105.114 109.937 106.288 108.318 107.226L102.244 110.738H102.237ZM106.453 104.032L108.167 103.039C109.533 102.25 110.597 101.181 111.358 99.8389C112.12 98.4938 112.501 97.1026 112.501 95.6621C112.501 94.2019 112.153 93.2284 111.454 92.7383C110.754 92.2483 109.658 92.4358 108.167 93.3007L106.453 94.2939V104.032Z" fill="#8A8474"/>
<path d="M51.2471 160.794V142.548L55.4629 140.111V154.088L65.2309 148.438V152.707L51.2471 160.794Z" fill="#8A8474"/>
<path d="M66.8857 151.75L72.7236 130.129L77.5599 127.333L83.1811 142.327L78.6303 144.958L77.6059 141.775L72.2934 144.847L71.246 149.227L66.8857 151.75ZM73.1504 140.821L76.749 138.739L74.9858 133.056L73.1504 140.818V140.821Z" fill="#8A8474"/>
<path d="M84.832 141.37V123.124L94.6427 117.451C95.7689 116.799 96.6981 116.398 97.4303 116.247C98.1592 116.099 98.7338 116.135 99.1442 116.362C99.5579 116.589 99.8501 116.928 100.024 117.382C100.198 117.835 100.287 118.355 100.287 118.937C100.287 119.519 100.159 120.309 99.9059 120.973C99.6531 121.641 99.3445 122.242 98.9899 122.788C98.632 123.331 98.2938 123.759 97.9786 124.071C98.3759 123.969 98.8192 123.956 99.3117 124.025C99.8042 124.097 100.234 124.331 100.599 124.732C100.963 125.133 101.147 125.791 101.147 126.702C101.147 128.511 100.595 130.152 99.4922 131.632C98.389 133.112 96.7736 134.464 94.6427 135.697L84.832 141.37ZM88.9527 128.07L94.1404 125.071C94.6329 124.785 95.0728 124.39 95.4636 123.884C95.851 123.377 96.048 122.775 96.048 122.081C96.048 121.298 95.8444 120.884 95.4406 120.845C95.0367 120.805 94.6033 120.92 94.1437 121.187L88.9559 124.186V128.07H88.9527ZM88.9527 135.539L94.449 132.359C94.7839 132.165 95.1352 131.915 95.5095 131.609C95.8838 131.303 96.199 130.918 96.4617 130.455C96.7244 129.994 96.8557 129.435 96.8557 128.777C96.8557 128.159 96.7244 127.771 96.4617 127.623C96.199 127.475 95.8806 127.458 95.5095 127.574C95.1352 127.689 94.7839 127.843 94.449 128.037L88.9527 131.218V135.539Z" fill="#8A8474"/>
<path d="M102.582 128.55L105.278 123.627C105.747 123.841 106.364 123.93 107.129 123.887C107.895 123.844 108.722 123.564 109.612 123.051C110.065 122.788 110.501 122.44 110.922 122.006C111.342 121.571 111.552 121.085 111.552 120.545C111.552 120.095 111.326 119.848 110.873 119.805C110.419 119.763 109.773 119.848 108.932 120.055L108 120.282C107.31 120.437 106.627 120.509 105.944 120.493C105.265 120.48 104.7 120.279 104.257 119.891C103.81 119.506 103.59 118.842 103.59 117.904C103.59 116.826 103.836 115.717 104.332 114.579C104.828 113.441 105.563 112.343 106.538 111.284C107.514 110.225 108.699 109.291 110.094 108.485C111.204 107.844 112.166 107.42 112.98 107.206C113.795 106.995 114.471 106.91 115.01 106.946C115.548 106.982 115.942 107.068 116.195 107.199L113.926 111.485C113.338 111.373 112.724 111.36 112.087 111.442C111.447 111.524 110.794 111.761 110.121 112.149C109.684 112.402 109.267 112.741 108.873 113.172C108.479 113.599 108.282 114.056 108.282 114.543C108.282 115.03 108.518 115.336 108.988 115.31C109.457 115.28 110.055 115.178 110.777 115.004L111.585 114.796C112.156 114.639 112.731 114.53 113.312 114.461C113.893 114.395 114.425 114.431 114.911 114.566C115.397 114.701 115.788 115 116.083 115.464C116.375 115.928 116.523 116.622 116.523 117.543C116.523 118.602 116.218 119.726 115.604 120.917C114.99 122.108 114.166 123.232 113.135 124.301C112.101 125.367 110.955 126.265 109.694 126.995C108.013 127.968 106.607 128.547 105.471 128.731C104.339 128.919 103.373 128.856 102.585 128.55H102.582Z" fill="#8A8474"/>
<path d="M54.471 32.2897C57.0913 32.2897 59.2155 30.162 59.2155 27.5374C59.2155 24.9127 57.0913 22.785 54.471 22.785C51.8507 22.785 49.7266 24.9127 49.7266 27.5374C49.7266 30.162 51.8507 32.2897 54.471 32.2897Z" fill="white"/>
<path d="M54.4708 33.296C51.2991 33.296 48.7217 30.711 48.7217 27.5373C48.7217 24.3636 51.3024 21.7786 54.4708 21.7786C57.6393 21.7786 60.22 24.3636 60.22 27.5373C60.22 30.711 57.6393 33.296 54.4708 33.296ZM54.4708 23.7946C52.4122 23.7946 50.7344 25.4752 50.7344 27.5373C50.7344 29.5994 52.4122 31.28 54.4708 31.28C56.5295 31.28 58.2073 29.5994 58.2073 27.5373C58.2073 25.4752 56.5295 23.7946 54.4708 23.7946Z" fill="#8A8474"/>
<path d="M43.6912 30.1092C48.0813 30.1092 51.6402 26.5444 51.6402 22.1469C51.6402 17.7495 48.0813 14.1847 43.6912 14.1847C39.3011 14.1847 35.7422 17.7495 35.7422 22.1469C35.7422 26.5444 39.3011 30.1092 43.6912 30.1092Z" fill="white"/>
<path d="M43.6914 31.1156C38.7532 31.1156 34.7344 27.0901 34.7344 22.1437C34.7344 17.1973 38.7532 13.1718 43.6914 13.1718C48.6296 13.1718 52.6484 17.1973 52.6484 22.1437C52.6484 27.0901 48.6296 31.1156 43.6914 31.1156ZM43.6914 15.1878C39.863 15.1878 36.7471 18.3089 36.7471 22.1437C36.7471 25.9784 39.863 29.0995 43.6914 29.0995C47.5198 29.0995 50.6357 25.9784 50.6357 22.1437C50.6357 18.3089 47.5198 15.1878 43.6914 15.1878Z" fill="#8A8474"/>
<path d="M53.6302 10.8235C56.3357 10.8235 58.529 8.6266 58.529 5.91657C58.529 3.20655 56.3357 1.00964 53.6302 1.00964C50.9247 1.00964 48.7314 3.20655 48.7314 5.91657C48.7314 8.6266 50.9247 10.8235 53.6302 10.8235Z" fill="white"/>
<path d="M53.6304 11.8332C50.3733 11.8332 47.7236 9.17912 47.7236 5.9166C47.7236 2.65408 50.3733 0 53.6304 0C56.8875 0 59.5372 2.65408 59.5372 5.9166C59.5372 9.17912 56.8875 11.8332 53.6304 11.8332ZM53.6304 2.01605C51.4831 2.01605 49.7363 3.76571 49.7363 5.9166C49.7363 8.06749 51.4831 9.81715 53.6304 9.81715C55.7777 9.81715 57.5245 8.06749 57.5245 5.9166C57.5245 3.76571 55.7777 2.01605 53.6304 2.01605Z" fill="#8A8474"/>
</g>
<defs>
<clipPath id="clip0_119_390">
<rect width="129" height="184" fill="white"/>
</clipPath>
</defs>
</svg>
